PathFileType	4	(X/Y/Z)	C:/Users/beibeiliu/ov580/test_trc\sequence.7_training_dense_right.trc
DataRate	CameraRate	NumFrames	NumMarkers	Units	OrigDataRate	OrigDataStartFrame	OrigNumFrames
120	120	25	19	mm	120	52	103
Frame#	Time	ThumbCMC			ThumbMCP			ThumbIP			ThumbTip			IndexMCP			IndexPIP			IndexTip			MiddleMCP			MiddlePIP			MiddleTip			RingMCP			RingPIP			RingTip			PinkyMCP			PinkyPIP			PinkyTip			BackHand1			BackHand2			BackHand3	
		X0	Y0	Z0	X1	Y1	Z1	X2	Y2	Z2	X3	Y3	Z3	X4	Y4	Z4	X5	Y5	Z5	X6	Y6	Z6	X7	Y7	Z7	X8	Y8	Z8	X9	Y9	Z9	X10	Y10	Z10	X11	Y11	Z11	X12	Y12	Z12	X13	Y13	Z13	X14	Y14	Z14	X15	Y15	Z15	X16	Y16	Z16	X17	Y17	Z17	X18	Y18	Z18	
51	0.425	115.785	38.4124	32.5114	124.246	34.2209	7.64736	133.217	33.1372	-8.3685	147.197	34.4609	-21.9774	109.41	0.896243	-23.5936	89.0718	17.4911	-33.632	88.7481	34.5954	-6.86522	91.9589	-6.10488	-20.2565	73.9666	17.3843	-26.1719	83.1168	29.4009	5.37813	72.952	-11.2827	-11.4521	67.2579	18.2852	-10.8511	75.5343	21.4191	16.4771	64.1081	-13.1781	-2.85887	56.3615	7.68349	-2.54685	73.0585	17.5748	19.9004	95.8978	-16.7945	31.3008	92.4532	-4.93116	58.1168	116.198	5.83299	39.9905	
52	0.433333	115.134	46.8121	32.2913	119.901	52.9119	7.67739	129.282	53.3221	-10.8345	137.592	64.0481	-21.7832	117.05	16.7383	-28.8233	92.7597	28.5694	-33.4034	88.7952	32.8936	-2.1385	104.732	1.98616	-26.0225	81.9902	18.9768	-26.5008	84.6779	25.3904	6.48778	92.856	-6.45534	-17.7379	75.2951	11.804	-11.6658	83.788	17.9316	16.0316	87.1818	-16.7011	-5.85896	72.1224	2.53101	-4.56447	81.6762	13.3531	17.2079	116.661	-11.8484	28.5707	111.333	2.09602	55.6852	125.311	16.2292	36.774	
53	0.441667	110.58	55.9599	31.236	110.532	66.9073	7.48335	115.479	72.4065	-10.4159	122.22	85.1787	-26.8534	123.459	34.1891	-29.836	97.1516	30.7381	-36.4702	88.8447	34.0914	-7.84065	117.072	17.8628	-29.0133	85.0308	19.4359	-24.8935	89.2983	25.3004	5.21909	106.829	-0.378782	-21.952	84.647	9.43229	-13.2239	95.4968	21.6855	12.7933	107.016	-12.8271	-9.59538	85.0718	-2.79787	-5.16042	92.1322	14.0496	14.4595	134.755	4.2749	25.1123	127.723	11.8239	50.0545	134.729	35.4042	32.5589	
54	0.45	107.127	61.328	27.9562	101.702	70.568	5.33316	104.314	81.8963	-16.3937	101.522	91.6142	-28.34	120.455	47.4102	-37.4829	94.335	37.7763	-36.9412	90.4854	38.3124	-9.75342	120.63	30.6225	-35.105	91.9538	22.9572	-27.2098	94.2519	31.7507	0.22147	118.42	14.6531	-26.7145	96.0948	11.3551	-15.2387	102.2	24.0794	9.04091	121.443	0.715266	-17.2168	100.51	5.01932	-7.09037	108.022	18.3238	16.534	145.85	27.1121	14.6071	139.568	27.3152	44.1382	137.611	53.7392	24.5411	
55	0.458333	104.769	68.2583	22.0816	96.7522	76.3232	-2.55917	91.2313	84.3736	-19.9923	88.2804	93.4705	-38.6297	116.459	61.0409	-41.9194	98.6647	40.9657	-41.7954	94.0805	40.3575	-14.4054	124.239	42.5812	-39.7572	100.34	26.8321	-33.4254	103.499	36.3794	-1.22284	130.825	25.3896	-30.2234	104.3	22.3401	-18.0491	112.729	30.3403	7.43204	136.397	16.4349	-21.1835	113.787	10.4849	-9.50003	115.342	28.827	8.92214	152.926	47.5822	7.99608	145.268	46.8637	37.7637	132.672	71.7883	18.4834	
56	0.466667	99.3408	73.2822	16.911	86.7508	75.3524	-7.71133	83.0411	80.8726	-27.7122	74.7545	86.2608	-44.0973	113.472	64.0371	-46.6657	99.1981	43.2775	-47.0365	96.7021	42.9638	-15.2491	125.084	50.9182	-43.6753	109.292	27.8187	-37.4099	105.996	38.4271	-6.33846	133.818	39.2917	-34.1231	115.538	22.0481	-20.3309	118.267	36.0855	3.06172	142.608	31.0259	-25.0302	125.336	17.9044	-12.3728	125.435	34.8425	8.01418	151.318	64.5169	4.86417	145.596	66.4933	31.6998	127.977	81.6252	12.7038	
57	0.475	90.6175	72.8662	13.4509	78.4967	69.9327	-13.6048	71.2986	70.4778	-35.6182	67.391	69.1039	-47.801	106.748	63.7987	-48.8884	102.699	35.6954	-44.8567	101.216	42.4644	-14.6912	125.734	51.3679	-44.1262	112.458	25.8944	-33.0532	110.011	38.8392	-5.24347	138.545	43.719	-33.5564	122.241	25.508	-20.4578	116.416	44.4363	1.59789	148.596	36.7629	-24.8994	130.515	26.926	-13.56	125.148	45.9107	7.93518	141.473	80.1125	0.504558	138.986	81.0228	25.0362	117.85	88.8404	7.73156	
58	0.483333	83.8684	68.7907	8.75849	72.3473	56.0414	-11.2762	65.2901	51.5439	-31.6912	63.6327	46.4288	-50.2404	105.993	53.3922	-46.8306	102.48	26.0313	-37.4825	98.5149	37.7891	-11.2759	124.144	48.5994	-40.9679	119.35	21.3167	-23.9023	105.987	40.2332	-0.408848	134.388	44.2468	-31.2884	126.691	25.9051	-11.1168	116.525	43.1963	5.53698	149.837	42.8541	-19.376	134.912	28.6408	-5.28938	123.582	46.301	11.7454	134.557	83.2534	0.441805	126.751	89.2475	27.6085	105.189	89.4282	5.58411	
59	0.491667	79.3717	61.535	10.5227	66.8542	44.4102	-8.77191	69.1147	35.6649	-30.0676	62.1628	26.809	-43.067	101.865	41.5609	-43.5846	107.02	18.0887	-30.3744	101.551	33.0117	-4.23521	123.453	37.2724	-35.7425	119.839	15.6474	-16.1149	107.637	33.5077	5.90473	137.276	38.3268	-24.4761	127.875	21.9231	-3.46069	117.173	41.4062	12.5665	149.689	43.6944	-13.2399	137.631	27.3816	2.44228	122.171	44.2563	12.7657	126.906	80.9281	-4.15636	117.358	90.5397	25.526	97.9795	85.696	4.53627	
60	0.5	71.6639	53.597	14.9388	69.3815	34.6695	-2.86008	62.9136	21.8852	-20.5809	55.158	10.2383	-33.96	104.645	28.9278	-38.1495	104.365	8.3802	-18.1822	94.8553	27.3769	3.30237	119.84	31.6219	-30.5124	116.388	8.20691	-10.9129	105.158	33.3594	12.9622	136.109	28.5057	-16.8393	126.318	17.7149	3.8615	113.868	39.0877	17.9755	147.918	38.2018	-5.53094	130.182	24.5735	8.46764	120.356	41.464	21.1682	123.707	77.188	-0.710793	112.589	87.0366	24.8353	93.5997	78.3252	1.77287	
61	0.508333	71.2655	44.8748	15.7159	61.9675	22.8417	6.93517	56.6532	7.59947	-10.3581	53.4369	-2.88075	-21.239	98.212	19.4993	-31.2474	104.885	-1.30849	-9.72993	92.3543	15.798	8.66344	120.023	20.7213	-22.0027	112.876	-1.54818	-0.0643262	100.26	21.5907	17.4945	129.501	19.5557	-11.6895	122.243	7.35073	8.94101	110.565	29.7919	23.8131	140.907	25.0148	-1.22468	131.339	15.9591	16.5535	113.415	39.3653	23.3592	121.743	65.6449	0.739265	111.027	78.8305	24.7629	88.0416	68.0034	4.40679	
62	0.516667	68.3868	39.7291	20.8707	60.8476	16.0787	14.1277	51.1198	-1.46766	-1.43063	41.4644	-11.1482	-7.08843	95.2912	6.19553	-22.8455	98.0439	-12.8838	-3.19281	86.6943	9.90402	16.5309	114.101	-0.100779	-15.5188	106.056	-12.881	8.56394	98.0417	16.8022	24.1822	127.37	6.43226	-3.71847	111.988	-1.96803	19.9729	105.501	26.1409	28.4716	139.941	12.003	6.24286	122.442	6.25435	24.9257	110.373	30.0636	25.8465	120.054	54.0403	3.7431	114.454	71.2911	26.4014	91.6302	57.4931	5.75567	
63	0.525	66.2287	35.8186	23.2713	54.7663	13.3477	19.8685	41.053	-1.61772	10.4612	27.2252	-12.9139	4.35582	85.5796	-6.29941	-14.8752	78.2442	-21.7618	9.58984	82.1273	6.12706	22.1005	102.892	-11.2259	-7.32386	94.861	-22.8757	16.6482	92.1467	11.5714	30.5937	117.34	-8.43933	3.93718	105.335	-11.499	28.5651	101.005	14.6966	34.3054	129.839	-4.35206	13.3062	113.264	-5.88928	29.8472	105.537	19.9044	34.1835	120.429	38.5183	1.42819	116.173	59.7171	25.6187	90.0027	48.6562	6.45322	
64	0.533333	66.8551	42.6525	28.8522	45.2914	19.7984	23.7114	30.908	8.82367	20.0282	16.1774	-1.45364	12.4008	66.1384	-8.48992	-9.75861	59.7862	-19.8471	18.8967	69.8042	6.03589	28.1042	81.7964	-18.3794	-0.931744	76.6573	-24.8888	26.8361	77.5772	6.18938	36.3013	98.9463	-19.3552	11.4211	87.8194	-13.8986	39.4585	88.7273	10.4152	39.4449	111.38	-17.0946	20.1419	97.6951	-10.4772	39.8102	98.3092	14.844	41.422	117.318	23.2815	4.19456	119.737	48.42	23.1141	92.8053	44.2566	8.39822	
65	0.541667	64.8984	47.2638	28.8468	42.978	30.9103	29.2529	23.2024	24.2432	23.7072	7.45897	18.208	20.3321	49.6376	-5.19467	-1.46557	42.887	-13.4558	26.7371	54.8043	9.32803	36.2495	61.7331	-22.7395	10.6319	52.2746	-19.9769	35.9849	62.4804	8.91822	42.8352	72.3317	-22.5606	21.8395	64.0325	-11.5085	44.1026	75.7924	14.1215	42.7891	86.9024	-23.9659	31.1214	79.0802	-9.39113	49.9081	84.6714	11.7488	45.0784	108.071	12.4881	10.93	116.451	36.6527	26.323	92.8224	36.565	7.06164	
66	0.55	64.7844	53.8649	31.528	39.4721	47.3568	34.1255	15.3363	43.786	26.4605	-0.143404	40.3357	24.038	30.3444	3.34069	10.1943	17.3311	4.48103	33.1981	41.9651	25.1962	42.7281	39.0924	-10.7709	19.2185	28.5561	-4.16216	46.8553	53.1369	19.7475	48.4255	46.5766	-18.2445	35.2679	44.8331	0.48131	56.3234	62.0544	18.2663	50.9067	61.3713	-22.58	42.1817	54.9877	-7.25144	57.8895	73.4155	13.9178	54.1893	92.1946	0.179969	17.5765	108.734	21.5833	31.0069	86.9222	33.1205	15.0589	
67	0.558333	65.498	59.3778	34.0516	38.2493	60.1109	34.3359	15.5355	57.7817	27.302	-0.73036	63.8414	24.0899	16.4236	17.9805	15.6527	3.77564	26.0663	38.7269	30.3888	36.5649	48.3934	15.7502	6.39319	28.5286	11.2233	15.0019	53.5859	39.9447	30.0155	55.2494	28.4685	-6.59726	41.3269	24.6641	12.7862	61.241	49.5535	25.0481	57.1706	38.5503	-14.7961	53.092	35.8676	9.51481	65.2419	56.7828	19.4164	60.3223	75.4458	1.12267	27.9298	99.8014	13.4916	39.369	76.8101	31.193	18.0306	
68	0.566667	66.0447	60.3836	35.5727	42.6619	68.4173	31.9691	20.8792	78.1002	20.3855	6.62894	83.295	13.7199	9.93084	34.222	14.765	-5.81515	44.0116	36.1613	21.2618	54.449	46.8139	1.42738	21.4189	31.1993	-0.531958	36.3382	53.2326	31.8172	42.3905	55.1159	8.4939	10.5471	46.1864	11.4554	32.4233	61.5269	41.2078	35.5624	56.4814	15.6407	2.83822	56.3437	16.9311	22.235	66.5639	44.2888	27.3375	59.1611	58.1463	4.27165	33.5721	80.9298	8.69502	44.7686	68.5663	25.5002	24.6178	
69	0.575	63.3291	52.86	31.8571	47.457	68.5962	22.1679	29.8709	78.5319	4.47405	20.7805	87.3138	-2.82447	4.26594	48.5047	6.22432	-5.56098	64.7911	24.5395	20.5178	66.6325	38.847	-3.5189	38.0086	22.8621	-4.49063	59.068	42.6739	27.085	50.3123	50.0891	-2.25026	28.0363	41.0149	4.17543	50.4627	53.7043	32.5698	41.356	57.1554	0.319164	23.6984	52.9623	7.66875	39.5328	66.8036	32.4894	34.8094	61.1574	39.4769	3.83053	37.9893	68.6531	9.38535	50.166	63.5172	25.8802	27.895	
70	0.583333	65.747	46.1227	29.2219	51.9563	60.39	9.7996	44.3594	69.46	-11.5891	36.4912	75.8622	-25.2277	5.50931	47.3397	-3.43794	1.68141	70.8576	7.29558	29.2255	67.9569	24.2999	-4.76577	42.2109	13.9492	-1.6823	69.4263	23.9785	25.4494	57.9035	39.6261	-4.70426	40.6112	29.5315	4.5879	62.9816	39.9325	30.4784	49.9955	44.6753	-6.68408	38.1039	44.0833	8.74977	54.5562	53.635	28.2455	43.495	50.6357	26.4723	7.71442	40.1081	51.025	7.68492	53.9697	55.0149	15.7416	27.8534	
71	0.591667	66.9995	33.355	25.3441	62.9603	44.3578	2.34904	51.1864	45.9938	-19.5125	50.2804	50.5123	-39.6821	15.3079	34.6097	-14.7905	10.7355	61.3926	-6.37137	33.2328	62.0659	10.1747	1.67563	40.4067	-1.36907	6.49472	65.7974	6.76639	33.8728	52.2174	24.5007	-3.50457	41.3473	17.6696	7.51226	61.6887	27.4676	32.4687	45.1247	36.772	-6.72556	38.6564	35.2353	8.01187	57.2396	35.6696	26.6867	43.6753	42.1473	22.9578	3.95375	42.4177	47.2456	6.15738	60.7769	53.6709	9.53725	33.442	
72	0.6	72.8356	22.6209	29.1056	67.1397	26.1027	-0.223769	61.6183	23.8656	-21.706	61.9495	24.3116	-40.5817	24.1595	14.4684	-16.3828	21.3291	45.5182	-17.3886	39.8937	45.5593	5.11306	8.91057	24.3178	-7.17252	13.8735	52.2617	-2.10034	37.5162	44.2444	16.3064	2.40121	27.9567	8.91172	17.8364	51.4119	11.571	34.5146	39.5866	31.311	-2.53754	29.5254	24.66	15.1985	48.3904	23.7925	32.4959	35.0852	37.6994	24.2006	-1.68312	42.8207	40.8181	1.2394	61.1979	54.3684	-1.43232	32.2865	
73	0.608333	78.5812	9.79228	29.088	81.8995	11.5709	2.71693	76.0256	5.28803	-17.8145	79.0449	0.801067	-35.1242	37.8397	-4.46846	-18.7866	37.2406	23.317	-26.7694	50.6846	32.3543	-2.41214	21.673	4.20654	-11.3759	23.7074	31.377	-12.9063	45.431	31.3733	11.7805	13.0929	10.4608	3.33525	23.6691	38.1197	5.28351	41.9353	29.5549	25.5993	4.12614	16.3079	18.841	18.5956	37.0849	17.0845	39.7006	26.5217	32.402	31.628	-10.421	40.7301	48.438	-2.84304	64.5915	63.2345	-9.80002	39.8246	
74	0.616667	88.4218	3.59437	33.7063	90.0812	-1.88641	6.90892	92.0451	-9.47039	-11.2541	95.9585	-17.1438	-28.9519	54.5808	-21.1162	-15.6059	50.9515	6.37129	-26.2638	58.9088	17.4667	-1.25989	36.9582	-12.8052	-11.3739	36.8879	15.675	-14.0742	53.3624	20.8054	11.5277	24.9372	-6.40487	1.96989	36.1841	22.6922	2.21945	50.5718	20.8439	21.5054	14.8169	0.116011	14.5162	29.5953	22.2051	10.383	47.8937	15.2212	27.2858	38.9313	-20.9322	43.9233	55.6923	-7.93392	67.7815	71.3558	-20.3706	42.9481	
75	0.625	100.472	-0.336742	37.8732	107.043	-4.57776	14.5072	112.214	-14.6275	-3.55409	121.692	-24.9145	-20.4951	73.5565	-31.5694	-12.9126	68.5391	-7.64639	-24.0716	77.3803	8.57338	-1.05162	58.0175	-28.4006	-7.65912	56.0296	2.2537	-16.9394	68.7365	9.44771	13.7343	40.4517	-16.6203	-1.78662	48.5616	6.09151	-4.46571	61.4238	10.901	21.262	29.2833	-15.0802	12.8962	36.967	7.55409	5.09102	56.306	10.8129	26.2469	52.2319	-28.7674	46.9056	63.8952	-11.5352	69.1087	86.2444	-25.1805	49.0132	
